<svg xmlns="http://www.w3.org/2000/svg" viewBox="0 0 100 100" width="100" height="100">
  <!-- Drone body -->
  <ellipse cx="50" cy="50" rx="15" ry="10" fill="#2196F3" stroke="#ffffff" stroke-width="2"/>

  <!-- Arms -->
  <line x1="35" y1="45" x2="20" y2="30" stroke="#1976D2" stroke-width="3" stroke-linecap="round"/>
  <line x1="65" y1="45" x2="80" y2="30" stroke="#1976D2" stroke-width="3" stroke-linecap="round"/>
  <line x1="35" y1="55" x2="20" y2="70" stroke="#1976D2" stroke-width="3" stroke-linecap="round"/>
  <line x1="65" y1="55" x2="80" y2="70" stroke="#1976D2" stroke-width="3" stroke-linecap="round"/>

  <!-- Propellers -->
  <circle cx="20" cy="30" r="8" fill="#FF9800" opacity="0.7"/>
  <circle cx="80" cy="30" r="8" fill="#FF9800" opacity="0.7"/>
  <circle cx="20" cy="70" r="8" fill="#FF9800" opacity="0.7"/>
  <circle cx="80" cy="70" r="8" fill="#FF9800" opacity="0.7"/>

  <!-- Propeller blades (rotating effect) -->
  <line x1="16" y1="30" x2="24" y2="30" stroke="#FFC107" stroke-width="2" stroke-linecap="round"/>
  <line x1="20" y1="26" x2="20" y2="34" stroke="#FFC107" stroke-width="2" stroke-linecap="round"/>
  <line x1="76" y1="30" x2="84" y2="30" stroke="#FFC107" stroke-width="2" stroke-linecap="round"/>
  <line x1="80" y1="26" x2="80" y2="34" stroke="#FFC107" stroke-width="2" stroke-linecap="round"/>
  <line x1="16" y1="70" x2="24" y2="70" stroke="#FFC107" stroke-width="2" stroke-linecap="round"/>
  <line x1="20" y1="66" x2="20" y2="74" stroke="#FFC107" stroke-width="2" stroke-linecap="round"/>
  <line x1="76" y1="70" x2="84" y2="70" stroke="#FFC107" stroke-width="2" stroke-linecap="round"/>
  <line x1="80" y1="66" x2="80" y2="74" stroke="#FFC107" stroke-width="2" stroke-linecap="round"/>

  <!-- Camera -->
  <circle cx="50" cy="55" r="4" fill="#424242" stroke="#ffffff" stroke-width="1"/>

  <!-- LED lights -->
  <circle cx="45" cy="47" r="2" fill="#00E676"/>
  <circle cx="55" cy="47" r="2" fill="#FF1744"/>
</svg>
